<svg xmlns="http://www.w3.org/2000/svg" viewBox="0 0 100 100" width="100" height="100">
  <defs>
    <linearGradient id="bgGrad" x1="0%" y1="0%" x2="100%" y2="100%">
      <stop offset="0%" stop-color="rgba(12, 18, 30, 0.95)"/>
      <stop offset="100%" stop-color="rgba(18, 36, 56, 0.95)"/>
    </linearGradient>
    <filter id="neonGlow" x="-20%" y="-20%" width="140%" height="140%">
      <feGaussianBlur stdDeviation="1.5" result="blur"/>
      <feComposite in="SourceGraphic" in2="blur" operator="over"/>
    </filter>
  </defs>
  <!-- Background Card com cantos chanfrados -->
  <polygon points="12,4 88,4 96,12 96,88 88,96 12,96 4,88 4,12" fill="url(#bgGrad)" stroke="#fcee0a" stroke-width="1.8" stroke-opacity="0.85"/>
  <!-- Cantoneiras Cibernéticas (L-Brackets) -->
  <path d="M 8 16 L 8 8 L 16 8" fill="none" stroke="#fcee0a" stroke-width="2"/>
  <path d="M 92 16 L 92 8 L 84 8" fill="none" stroke="#fcee0a" stroke-width="2"/>
  <path d="M 8 84 L 8 92 L 16 92" fill="none" stroke="#fcee0a" stroke-width="2"/>
  <path d="M 92 84 L 92 92 L 84 92" fill="none" stroke="#fcee0a" stroke-width="2"/>
  <!-- Conteúdo Principal do Ícone -->
  
  <!-- Colete Balístico Tático com Placas -->
  <path d="M 34 26 L 24 38 L 26 74 L 74 74 L 76 38 L 66 26 L 56 34 L 44 34 Z" fill="#14202e" stroke="#fcee0a" stroke-width="2.2"/>
  <!-- Placas de Armadura no Peito -->
  <rect x="32" y="40" width="36" height="14" rx="2" fill="#1a2e42" stroke="#22d8e2" stroke-width="1.8"/>
  <text x="50" y="51" text-anchor="middle" fill="#fcee0a" font-family="monospace" font-size="8" font-weight="bold">TRAUMA</text>
  <!-- Bolsos MOLLE Inferiores -->
  <rect x="30" y="58" width="11" height="12" fill="#182636" stroke="#fcee0a" stroke-width="1.5"/>
  <rect x="44.5" y="58" width="11" height="12" fill="#182636" stroke="#fcee0a" stroke-width="1.5"/>
  <rect x="59" y="58" width="11" height="12" fill="#182636" stroke="#fcee0a" stroke-width="1.5"/>

</svg>