<svg xmlns="http://www.w3.org/2000/svg" viewBox="0 0 100 100" width="100" height="100">
  <defs>
    <linearGradient id="bgGrad" x1="0%" y1="0%" x2="100%" y2="100%">
      <stop offset="0%" stop-color="rgba(12, 18, 30, 0.95)"/>
      <stop offset="100%" stop-color="rgba(18, 36, 56, 0.95)"/>
    </linearGradient>
    <filter id="neonGlow" x="-20%" y="-20%" width="140%" height="140%">
      <feGaussianBlur stdDeviation="1.5" result="blur"/>
      <feComposite in="SourceGraphic" in2="blur" operator="over"/>
    </filter>
  </defs>
  <!-- Background Card com cantos chanfrados -->
  <polygon points="12,4 88,4 96,12 96,88 88,96 12,96 4,88 4,12" fill="url(#bgGrad)" stroke="#05ffa1" stroke-width="1.8" stroke-opacity="0.85"/>
  <!-- Cantoneiras Cibernéticas (L-Brackets) -->
  <path d="M 8 16 L 8 8 L 16 8" fill="none" stroke="#05ffa1" stroke-width="2"/>
  <path d="M 92 16 L 92 8 L 84 8" fill="none" stroke="#05ffa1" stroke-width="2"/>
  <path d="M 8 84 L 8 92 L 16 92" fill="none" stroke="#05ffa1" stroke-width="2"/>
  <path d="M 92 84 L 92 92 L 84 92" fill="none" stroke="#05ffa1" stroke-width="2"/>
  <!-- Conteúdo Principal do Ícone -->
  
  <!-- Capuz / Balaclava Facial -->
  <path d="M 28 32 C 28 18, 72 18, 72 32 C 72 55, 68 76, 50 82 C 32 76, 28 55, 28 32 Z" fill="#101c2a" stroke="#05ffa1" stroke-width="2"/>
  <!-- Abertura dos Olhos -->
  <ellipse cx="50" cy="38" rx="16" ry="6" fill="#060c14" stroke="#05ffa1" stroke-width="1.8"/>
  <circle cx="44" cy="38" r="2.5" fill="#00e5ff"/>
  <circle cx="56" cy="38" r="2.5" fill="#00e5ff"/>
  <!-- Malha Tática Filtrante na Boca -->
  <path d="M 40 56 L 60 56 L 56 68 L 44 68 Z" fill="#162636" stroke="#05ffa1" stroke-width="1.5"/>
  <line x1="43" y1="62" x2="57" y2="62" stroke="#05ffa1" stroke-width="1.2" stroke-dasharray="2,2"/>

</svg>