<svg xmlns="http://www.w3.org/2000/svg" viewBox="0 0 100 100" width="100" height="100">
  <defs>
    <linearGradient id="bgGrad" x1="0%" y1="0%" x2="100%" y2="100%">
      <stop offset="0%" stop-color="rgba(12, 18, 30, 0.95)"/>
      <stop offset="100%" stop-color="rgba(18, 36, 56, 0.95)"/>
    </linearGradient>
    <filter id="neonGlow" x="-20%" y="-20%" width="140%" height="140%">
      <feGaussianBlur stdDeviation="1.5" result="blur"/>
      <feComposite in="SourceGraphic" in2="blur" operator="over"/>
    </filter>
  </defs>
  <!-- Background Card com cantos chanfrados -->
  <polygon points="12,4 88,4 96,12 96,88 88,96 12,96 4,88 4,12" fill="url(#bgGrad)" stroke="#22d8e2" stroke-width="1.8" stroke-opacity="0.85"/>
  <!-- Cantoneiras Cibernéticas (L-Brackets) -->
  <path d="M 8 16 L 8 8 L 16 8" fill="none" stroke="#22d8e2" stroke-width="2"/>
  <path d="M 92 16 L 92 8 L 84 8" fill="none" stroke="#22d8e2" stroke-width="2"/>
  <path d="M 8 84 L 8 92 L 16 92" fill="none" stroke="#22d8e2" stroke-width="2"/>
  <path d="M 92 84 L 92 92 L 84 92" fill="none" stroke="#22d8e2" stroke-width="2"/>
  <!-- Conteúdo Principal do Ícone -->
  
  <!-- Capacete Tático / Integral -->
  <path d="M 28 42 C 28 24, 72 24, 72 42 C 72 58, 68 76, 50 78 C 32 76, 28 58, 28 42 Z" fill="#142232" stroke="#22d8e2" stroke-width="2.2"/>
  <!-- Visor Frontal Kiroshi -->
  <path d="M 32 38 L 68 38 L 64 54 L 36 54 Z" fill="#00e5ff" fill-opacity="0.35" stroke="#00e5ff" stroke-width="2"/>
  <line x1="36" y1="46" x2="64" y2="46" stroke="#fcee0a" stroke-width="1.5" stroke-dasharray="3,2"/>
  <!-- Placas de Ventilação e Blindagem -->
  <line x1="42" y1="62" x2="58" y2="62" stroke="#22d8e2" stroke-width="2"/>
  <line x1="45" y1="68" x2="55" y2="68" stroke="#22d8e2" stroke-width="2"/>
  <circle cx="28" cy="48" r="3" fill="#22d8e2"/>
  <circle cx="72" cy="48" r="3" fill="#22d8e2"/>

</svg>