<svg xmlns="http://www.w3.org/2000/svg" viewBox="0 0 100 100" width="100" height="100">
  <defs>
    <linearGradient id="bgGrad" x1="0%" y1="0%" x2="100%" y2="100%">
      <stop offset="0%" stop-color="rgba(12, 18, 30, 0.95)"/>
      <stop offset="100%" stop-color="rgba(18, 36, 56, 0.95)"/>
    </linearGradient>
    <filter id="neonGlow" x="-20%" y="-20%" width="140%" height="140%">
      <feGaussianBlur stdDeviation="1.5" result="blur"/>
      <feComposite in="SourceGraphic" in2="blur" operator="over"/>
    </filter>
  </defs>
  <!-- Background Card com cantos chanfrados -->
  <polygon points="12,4 88,4 96,12 96,88 88,96 12,96 4,88 4,12" fill="url(#bgGrad)" stroke="#fcee0a" stroke-width="1.8" stroke-opacity="0.85"/>
  <!-- Cantoneiras Cibernéticas (L-Brackets) -->
  <path d="M 8 16 L 8 8 L 16 8" fill="none" stroke="#fcee0a" stroke-width="2"/>
  <path d="M 92 16 L 92 8 L 84 8" fill="none" stroke="#fcee0a" stroke-width="2"/>
  <path d="M 8 84 L 8 92 L 16 92" fill="none" stroke="#fcee0a" stroke-width="2"/>
  <path d="M 92 84 L 92 92 L 84 92" fill="none" stroke="#fcee0a" stroke-width="2"/>
  <!-- Conteúdo Principal do Ícone -->
  
  <!-- Par de Botas de Combate de Cano Alto -->
  <!-- Bota Esquerda -->
  <path d="M 28 26 L 40 26 L 40 64 L 46 64 L 48 76 L 22 76 L 22 66 L 28 64 Z" fill="#14202e" stroke="#fcee0a" stroke-width="2.2"/>
  <!-- Bota Direita -->
  <path d="M 60 26 L 72 26 L 72 64 L 78 64 L 80 76 L 54 76 L 54 66 L 60 64 Z" fill="#14202e" stroke="#fcee0a" stroke-width="2.2"/>
  <!-- Solados Reforçados Tratorados -->
  <line x1="22" y1="73" x2="48" y2="73" stroke="#ff003c" stroke-width="2"/>
  <line x1="54" y1="73" x2="80" y2="73" stroke="#ff003c" stroke-width="2"/>
  <!-- Fivelas Táticas Metálicas -->
  <line x1="28" y1="36" x2="40" y2="36" stroke="#22d8e2" stroke-width="2"/>
  <line x1="28" y1="46" x2="40" y2="46" stroke="#22d8e2" stroke-width="2"/>
  <line x1="60" y1="36" x2="72" y2="36" stroke="#22d8e2" stroke-width="2"/>
  <line x1="60" y1="46" x2="72" y2="46" stroke="#22d8e2" stroke-width="2"/>

</svg>