<svg xmlns="http://www.w3.org/2000/svg" viewBox="0 0 100 100" width="100" height="100">
  <defs>
    <linearGradient id="bgGrad" x1="0%" y1="0%" x2="100%" y2="100%">
      <stop offset="0%" stop-color="rgba(12, 18, 30, 0.95)"/>
      <stop offset="100%" stop-color="rgba(18, 36, 56, 0.95)"/>
    </linearGradient>
    <filter id="neonGlow" x="-20%" y="-20%" width="140%" height="140%">
      <feGaussianBlur stdDeviation="1.5" result="blur"/>
      <feComposite in="SourceGraphic" in2="blur" operator="over"/>
    </filter>
  </defs>
  <!-- Background Card com cantos chanfrados -->
  <polygon points="12,4 88,4 96,12 96,88 88,96 12,96 4,88 4,12" fill="url(#bgGrad)" stroke="#22d8e2" stroke-width="1.8" stroke-opacity="0.85"/>
  <!-- Cantoneiras Cibernéticas (L-Brackets) -->
  <path d="M 8 16 L 8 8 L 16 8" fill="none" stroke="#22d8e2" stroke-width="2"/>
  <path d="M 92 16 L 92 8 L 84 8" fill="none" stroke="#22d8e2" stroke-width="2"/>
  <path d="M 8 84 L 8 92 L 16 92" fill="none" stroke="#22d8e2" stroke-width="2"/>
  <path d="M 92 84 L 92 92 L 84 92" fill="none" stroke="#22d8e2" stroke-width="2"/>
  <!-- Conteúdo Principal do Ícone -->
  
  <!-- Calça Cargo Militar com Bolsos -->
  <path d="M 32 24 L 68 24 L 66 80 L 53 80 L 50 44 L 47 80 L 34 80 Z" fill="#142232" stroke="#22d8e2" stroke-width="2.2"/>
  <!-- Cós / Cinto Tático -->
  <rect x="32" y="24" width="36" height="6" fill="#1a2e42" stroke="#fcee0a" stroke-width="1.8"/>
  <!-- Bolsos Cargo Laterais -->
  <rect x="28" y="42" width="8" height="14" rx="2" fill="#1a2e40" stroke="#22d8e2" stroke-width="1.5"/>
  <rect x="64" y="42" width="8" height="14" rx="2" fill="#1a2e40" stroke="#22d8e2" stroke-width="1.5"/>
  <!-- Reforço Acolchoado nos Joelhos -->
  <rect x="36" y="56" width="9" height="8" rx="2" fill="#182a3c" stroke="#fcee0a" stroke-width="1.5"/>
  <rect x="55" y="56" width="9" height="8" rx="2" fill="#182a3c" stroke="#fcee0a" stroke-width="1.5"/>

</svg>