<svg xmlns="http://www.w3.org/2000/svg" viewBox="0 0 100 100" width="100" height="100">
  <defs>
    <linearGradient id="bgGrad" x1="0%" y1="0%" x2="100%" y2="100%">
      <stop offset="0%" stop-color="rgba(12, 18, 30, 0.95)"/>
      <stop offset="100%" stop-color="rgba(18, 36, 56, 0.95)"/>
    </linearGradient>
    <filter id="neonGlow" x="-20%" y="-20%" width="140%" height="140%">
      <feGaussianBlur stdDeviation="1.5" result="blur"/>
      <feComposite in="SourceGraphic" in2="blur" operator="over"/>
    </filter>
  </defs>
  <!-- Background Card com cantos chanfrados -->
  <polygon points="12,4 88,4 96,12 96,88 88,96 12,96 4,88 4,12" fill="url(#bgGrad)" stroke="#00e5ff" stroke-width="1.8" stroke-opacity="0.85"/>
  <!-- Cantoneiras Cibernéticas (L-Brackets) -->
  <path d="M 8 16 L 8 8 L 16 8" fill="none" stroke="#00e5ff" stroke-width="2"/>
  <path d="M 92 16 L 92 8 L 84 8" fill="none" stroke="#00e5ff" stroke-width="2"/>
  <path d="M 8 84 L 8 92 L 16 92" fill="none" stroke="#00e5ff" stroke-width="2"/>
  <path d="M 92 84 L 92 92 L 84 92" fill="none" stroke="#00e5ff" stroke-width="2"/>
  <!-- Conteúdo Principal do Ícone -->
  
  <!-- Globo Ocular Mecânico Kiroshi -->
  <circle cx="50" cy="50" r="28" fill="#0e1a28" stroke="#00e5ff" stroke-width="2.5"/>
  <!-- Íris Tecnológica com Marcadores de Alvo -->
  <circle cx="50" cy="50" r="16" fill="#12263a" stroke="#fcee0a" stroke-width="2"/>
  <circle cx="50" cy="50" r="8" fill="#ff003c"/>
  <circle cx="50" cy="50" r="3" fill="#ffffff"/>
  <!-- Retículo de Varredura / Mira Kiroshi -->
  <line x1="50" y1="24" x2="50" y2="30" stroke="#00e5ff" stroke-width="2"/>
  <line x1="50" y1="70" x2="50" y2="76" stroke="#00e5ff" stroke-width="2"/>
  <line x1="24" y1="50" x2="30" y2="50" stroke="#00e5ff" stroke-width="2"/>
  <line x1="70" y1="50" x2="76" y2="50" stroke="#00e5ff" stroke-width="2"/>

</svg>