<svg xmlns="http://www.w3.org/2000/svg" viewBox="0 0 100 100" width="100" height="100">
  <defs>
    <linearGradient id="bgGrad" x1="0%" y1="0%" x2="100%" y2="100%">
      <stop offset="0%" stop-color="rgba(12, 18, 30, 0.95)"/>
      <stop offset="100%" stop-color="rgba(18, 36, 56, 0.95)"/>
    </linearGradient>
  </defs>
  <polygon points="12,4 88,4 96,12 96,88 88,96 12,96 4,88 4,12" fill="url(#bgGrad)" stroke="#ff003c" stroke-width="1.8" stroke-opacity="0.85"/>
  <path d="M 8 16 L 8 8 L 16 8" fill="none" stroke="#ff003c" stroke-width="2"/>
  <path d="M 92 16 L 92 8 L 84 8" fill="none" stroke="#ff003c" stroke-width="2"/>
  <path d="M 8 84 L 8 92 L 16 92" fill="none" stroke="#ff003c" stroke-width="2"/>
  <path d="M 92 84 L 92 92 L 84 92" fill="none" stroke="#ff003c" stroke-width="2"/>
  
  <path d="M 50 78 C 30 62, 28 32, 38 22 C 48 14, 52 14, 62 22 C 72 32, 70 62, 50 78 Z" fill="#182638" stroke="#ff003c" stroke-width="2.2"/>
  <text x="50" y="44" text-anchor="middle" fill="#fcee0a" font-family="monospace" font-size="7" font-weight="bold">SILVER</text>
  <text x="50" y="52" text-anchor="middle" fill="#fcee0a" font-family="monospace" font-size="7" font-weight="bold">HAND</text>

</svg>